<svg width="13" height="13" viewBox="0 0 13 13" fill="none" xmlns="http://www.w3.org/2000/svg">
<path d="M6.28682 3.25789C4.51338 3.25789 3.08213 4.68914 3.08213 6.46257C3.08213 8.23601 4.51338 9.66726 6.28682 9.66726C8.06026 9.66726 9.49151 8.23601 9.49151 6.46257C9.49151 4.68914 8.06026 3.25789 6.28682 3.25789ZM6.28682 8.54538C5.13995 8.54538 4.20401 7.60945 4.20401 6.46257C4.20401 5.3157 5.13995 4.37976 6.28682 4.37976C7.4337 4.37976 8.36964 5.3157 8.36964 6.46257C8.36964 7.60945 7.4337 8.54538 6.28682 8.54538ZM9.62276 2.37976C9.2087 2.37976 8.87432 2.71414 8.87432 3.1282C8.87432 3.54226 9.2087 3.87664 9.62276 3.87664C10.0368 3.87664 10.3712 3.54382 10.3712 3.1282C10.3713 3.02988 10.352 2.9325 10.3145 2.84164C10.2769 2.75078 10.2218 2.66822 10.1523 2.5987C10.0827 2.52917 10.0002 2.47405 9.90932 2.43648C9.81846 2.39891 9.72108 2.37964 9.62276 2.37976ZM12.5337 6.46257C12.5337 5.60007 12.5415 4.74539 12.4931 3.88445C12.4446 2.88445 12.2165 1.99695 11.4853 1.2657C10.7524 0.532886 9.86651 0.306324 8.86651 0.257887C8.00401 0.209449 7.14932 0.217262 6.28838 0.217262C5.42588 0.217262 4.5712 0.209449 3.71026 0.257887C2.71026 0.306324 1.82276 0.534449 1.09151 1.2657C0.358693 1.99851 0.13213 2.88445 0.0836923 3.88445C0.0352548 4.74695 0.0430673 5.60163 0.0430673 6.46257C0.0430673 7.32351 0.0352548 8.17976 0.0836923 9.0407C0.13213 10.0407 0.360255 10.9282 1.09151 11.6594C1.82432 12.3923 2.71026 12.6188 3.71026 12.6673C4.57276 12.7157 5.42745 12.7079 6.28838 12.7079C7.15088 12.7079 8.00557 12.7157 8.86651 12.6673C9.86651 12.6188 10.754 12.3907 11.4853 11.6594C12.2181 10.9266 12.4446 10.0407 12.4931 9.0407C12.5431 8.17976 12.5337 7.32507 12.5337 6.46257ZM11.1587 10.1469C11.0446 10.4313 10.9071 10.6438 10.6868 10.8626C10.4665 11.0829 10.2556 11.2204 9.9712 11.3344C9.14932 11.661 7.19776 11.5876 6.28682 11.5876C5.37588 11.5876 3.42276 11.661 2.60088 11.336C2.31651 11.2219 2.10401 11.0844 1.88526 10.8641C1.66494 10.6438 1.52744 10.4329 1.41338 10.1485C1.08838 9.32507 1.16182 7.37351 1.16182 6.46257C1.16182 5.55163 1.08838 3.59851 1.41338 2.77664C1.52744 2.49226 1.66494 2.27976 1.88526 2.06101C2.10557 1.84226 2.31651 1.7032 2.60088 1.58914C3.42276 1.26414 5.37588 1.33757 6.28682 1.33757C7.19776 1.33757 9.15089 1.26414 9.97276 1.58914C10.2571 1.7032 10.4696 1.8407 10.6884 2.06101C10.9087 2.28132 11.0462 2.49226 11.1603 2.77664C11.4853 3.59851 11.4118 5.55163 11.4118 6.46257C11.4118 7.37351 11.4853 9.32507 11.1587 10.1469Z" fill="#333333"/>
</svg>
