<svg width="10" height="13" viewBox="0 0 10 13" fill="none" xmlns="http://www.w3.org/2000/svg">
<path d="M0.0893979 4.7672C0.0893979 4.24854 0.180064 3.75854 0.358731 3.3012C0.529434 2.857 0.78305 2.44932 1.10606 2.09987C1.42842 1.75501 1.79731 1.4568 2.20206 1.21387C2.61734 0.962638 3.06693 0.773101 3.53673 0.651203C4.0122 0.526351 4.5018 0.463386 4.9934 0.46387C5.75273 0.46387 6.4594 0.624537 7.11473 0.944537C7.76151 1.2587 8.31202 1.74083 8.70873 2.34054C9.11806 2.95054 9.3214 3.64054 9.3214 4.40987C9.3214 4.8712 9.27606 5.32254 9.1834 5.76387C9.09241 6.20496 8.94778 6.63325 8.75273 7.0392C8.56682 7.43217 8.32374 7.79545 8.0314 8.1172C7.73758 8.43384 7.38176 8.68664 6.98606 8.85987C6.55647 9.04814 6.09174 9.14291 5.62273 9.13787C5.29673 9.13787 4.9714 9.0612 4.65006 8.9072C4.32873 8.75387 4.09806 8.5432 3.9594 8.2732C3.91073 8.46054 3.84406 8.7312 3.7554 9.0852C3.67006 9.43854 3.61273 9.66654 3.5874 9.76987C3.56073 9.87254 3.5114 10.0439 3.4394 10.2812C3.39057 10.4568 3.32793 10.6282 3.25206 10.7939L3.02273 11.2432C2.92355 11.436 2.81268 11.6226 2.69073 11.8019C2.57006 11.9765 2.42073 12.1852 2.24273 12.4252L2.1434 12.4605L2.0774 12.3885C2.00606 11.6332 1.9694 11.1812 1.9694 11.0319C1.9694 10.5899 2.02206 10.0939 2.12606 9.5432C2.22806 8.9932 2.3894 8.30187 2.60606 7.47054C2.82273 6.63987 2.94673 6.1512 2.98006 6.00654C2.8274 5.6952 2.75006 5.28854 2.75006 4.78854C2.75006 4.3892 2.87473 4.0152 3.12473 3.6632C3.3754 3.31254 3.69206 3.1372 4.07606 3.1372C4.37006 3.1372 4.59806 3.23454 4.7614 3.42987C4.9254 3.62454 5.0054 3.86987 5.0054 4.1692C5.0054 4.48654 4.90006 4.94587 4.68806 5.54654C4.47606 6.14787 4.37073 6.59654 4.37073 6.89454C4.37073 7.19654 4.47873 7.4492 4.69473 7.6472C4.90789 7.8453 5.18979 7.95266 5.48073 7.94654C5.74473 7.94654 5.9894 7.88654 6.21673 7.76587C6.44051 7.64874 6.63421 7.4815 6.78273 7.2772C7.10621 6.8334 7.33681 6.32889 7.46073 5.79387C7.52473 5.51254 7.57406 5.2452 7.60473 4.99387C7.6374 4.7412 7.6514 4.50254 7.6514 4.27587C7.6514 3.44454 7.3874 2.79654 6.86273 2.33254C6.3354 1.86854 5.64873 1.63787 4.80406 1.63787C3.8434 1.63787 3.04006 1.94854 2.39673 2.57187C1.75273 3.1932 1.42873 3.9832 1.42873 4.9412C1.42873 5.15254 1.46073 5.35654 1.5214 5.55387C1.58073 5.75054 1.6454 5.9072 1.7154 6.0232C1.78473 6.1372 1.85006 6.24854 1.9094 6.3512C1.9694 6.45387 2.00073 6.5272 2.00073 6.5712C2.00073 6.70587 1.9654 6.8812 1.89406 7.09787C1.82006 7.31454 1.73273 7.42254 1.6274 7.42254C1.6174 7.42254 1.57606 7.4152 1.50406 7.39987C1.25471 7.32543 1.02952 7.18626 0.851398 6.99654C0.662356 6.79991 0.513167 6.56854 0.412064 6.3152C0.31125 6.06277 0.232728 5.802 0.177398 5.53587C0.117619 5.28406 0.0880771 5.02601 0.0893979 4.7672Z" fill="#333333"/>
</svg>
