<svg width="13" height="14" viewBox="0 0 13 14" fill="none" xmlns="http://www.w3.org/2000/svg">
<path d="M6.49548 0.962402C2.91111 0.962402 -0.0045166 3.87803 -0.0045166 7.4624C-0.0045166 11.0468 2.91111 13.9624 6.49548 13.9624C10.0799 13.9624 12.9955 11.0468 12.9955 7.4624C12.9955 3.87803 10.0799 0.962402 6.49548 0.962402ZM10.7939 3.95928C11.5674 4.90459 12.0361 6.10772 12.047 7.41865C11.8642 7.37959 10.0283 7.00771 8.18142 7.24053C8.14236 7.14521 8.1033 7.0499 8.06267 6.95459C7.94705 6.68428 7.82361 6.41396 7.69392 6.1499C9.74548 5.31084 10.6767 4.11865 10.7939 3.95928ZM6.49548 1.91865C7.90642 1.91865 9.19548 2.44834 10.1752 3.31709C10.0752 3.45928 9.23923 4.58272 7.2658 5.32334C6.35642 3.65146 5.34861 2.27959 5.19392 2.07334C5.62048 1.97021 6.05642 1.91865 6.49548 1.91865ZM4.13455 2.44678C4.28142 2.64678 5.27361 4.02334 6.19236 5.65771C3.59548 6.34678 1.30798 6.3374 1.05955 6.33428C1.42048 4.61084 2.58142 3.17959 4.13455 2.44678ZM0.943921 7.47021C0.943921 7.41396 0.945483 7.35615 0.947046 7.2999C1.18923 7.30459 3.87986 7.33896 6.6533 6.50928C6.81267 6.82021 6.96423 7.13584 7.1033 7.45146C7.02986 7.47178 6.95642 7.49365 6.88455 7.51709C4.02048 8.44521 2.49705 10.9687 2.37048 11.1827C1.48455 10.1983 0.943921 8.89678 0.943921 7.47021ZM6.49548 13.0218C5.21111 13.0218 4.0283 12.5843 3.08767 11.8499C3.18767 11.6452 4.31111 9.4749 7.44236 8.38272L7.4783 8.37021C8.25799 10.3952 8.57986 12.0937 8.66267 12.5812C7.97776 12.8739 7.24033 13.0238 6.49548 13.0218ZM9.59705 12.0733C9.5408 11.7358 9.24548 10.1108 8.51892 8.11553C10.2595 7.8374 11.7877 8.29365 11.9767 8.35303C11.7299 9.89678 10.8439 11.2312 9.59705 12.0733Z" fill="#333333"/>
</svg>
